<svg xmlns="http://www.w3.org/2000/svg" width="10.694" height="10.694" viewBox="1.556 1.75 10.694 10.694"><path d="M9.576 2.285a.535.535 0 1 0-1.07 0H5.299a.535.535 0 1 0-1.069 0A2.677 2.677 0 0 0 1.556 4.96V9.77c0 1.474 1.199 2.673 2.673 2.673h5.347c1.474 0 2.674-1.199 2.674-2.673V4.959c0-1.475-1.2-2.674-2.674-2.674ZM4.23 3.355v.534a.535.535 0 1 0 1.07 0v-.535h3.208v.535a.535.535 0 1 0 1.07 0v-.535c.884 0 1.603.72 1.603 1.605H2.625c0-.885.72-1.605 1.604-1.605Zm5.347 8.02H4.23c-.884 0-1.604-.72-1.604-1.604V6.028h8.555v3.743c0 .884-.72 1.604-1.604 1.604Zm0-3.743a.535.535 0 1 1-1.07 0 .535.535 0 0 1 1.07 0Zm-2.139 0a.535.535 0 1 1-1.07 0 .535.535 0 0 1 1.07 0Zm-2.139 0a.535.535 0 1 1-1.07 0 .535.535 0 0 1 1.07 0Zm4.278 2.139a.535.535 0 1 1-1.07 0 .535.535 0 0 1 1.07 0Zm-2.139 0a.535.535 0 1 1-1.07 0 .535.535 0 0 1 1.07 0Zm-2.139 0a.535.535 0 1 1-1.07 0 .535.535 0 0 1 1.07 0Z" fill="#707070" fill-rule="evenodd" data-name="calendar-Bold_1_"/></svg>