<svg xmlns="http://www.w3.org/2000/svg" width="23.809" height="15.511" viewBox="29.84 96.635 23.809 15.511"><path d="M53.623 98.548c0-1.06-.853-1.913-1.913-1.913H31.753c-1.06 0-1.913.853-1.913 1.913v11.71c0 1.035.853 1.888 1.913 1.888h19.983c1.06 0 1.913-.853 1.913-1.913V98.548h-.026Zm-2.068.155v1.81H31.908v-1.81h19.647Zm-19.647 11.375v-6.463h19.647v6.463H31.908Zm17.708-3.36c0 .568-.465 1.033-1.034 1.033H43.67a1.037 1.037 0 0 1-1.034-1.034c0-.569.466-1.034 1.034-1.034h4.912c.569 0 1.034.465 1.034 1.034Z" fill="#8300c4" fill-rule="evenodd" data-name="Card"/></svg>