<svg xmlns="http://www.w3.org/2000/svg" width="26.667" height="26.667" viewBox="2.667 2.667 26.667 26.667"><path d="M22.276 12.39a1.332 1.332 0 0 1 0 1.886l-6.667 6.667a1.33 1.33 0 0 1-1.885 0l-4-4a1.332 1.332 0 1 1 1.885-1.885l3.058 3.057 5.724-5.724a1.332 1.332 0 0 1 1.885 0ZM29.333 16c0 7.352-5.981 13.333-13.333 13.333S2.667 23.352 2.667 16 8.648 2.667 16 2.667 29.333 8.647 29.333 16Zm-2.666 0c0-5.881-4.786-10.667-10.667-10.667S5.333 10.12 5.333 16 10.12 26.667 16 26.667 26.667 21.88 26.667 16Z" fill="#bbb" fill-rule="evenodd" data-name="check-circle-Bold_1_"/></svg>