<svg xmlns="http://www.w3.org/2000/svg" width="33.25" height="33.25" viewBox="4.375 4.375 33.25 33.25"><path d="M21 4.375C11.83 4.375 4.375 11.83 4.375 21S11.83 37.625 21 37.625 37.625 30.17 37.625 21 30.17 4.375 21 4.375Zm2.993 20.633a1.763 1.763 0 0 1 0 2.484c-.35.333-.788.508-1.243.508-.455 0-.893-.175-1.243-.508l-5.25-5.25a1.763 1.763 0 0 1 0-2.484l5.25-5.25a1.764 1.764 0 0 1 2.485 0 1.763 1.763 0 0 1 0 2.484L19.967 21l4.026 4.008Z" fill="#41416e" fill-rule="evenodd" data-name="chevron-circle-left-Filled_1_"/></svg>