<svg xmlns="http://www.w3.org/2000/svg" width="33.25" height="33.25" viewBox="4.375 4.375 33.25 33.25"><path d="M21 4.375c-9.17 0-16.625 7.454-16.625 16.624 0 9.17 7.455 16.626 16.625 16.626s16.625-7.456 16.625-16.626c0-9.17-7.455-16.624-16.625-16.624Zm4.742 17.867-5.25 5.25c-.35.332-.787.508-1.242.508-.455 0-.892-.176-1.243-.508a1.764 1.764 0 0 1 0-2.485l4.025-4.008-4.025-4.007a1.764 1.764 0 0 1 0-2.485 1.765 1.765 0 0 1 2.485 0l5.25 5.25a1.764 1.764 0 0 1 0 2.485Z" fill="#41416e" fill-rule="evenodd" data-name="chevron-circle-right-Filled_1_"/></svg>