<svg xmlns="http://www.w3.org/2000/svg" width="15.649" height="15.649" viewBox="1 1 15.649 15.649"><path d="M15.184 1.628a2.144 2.144 0 0 0-3.032 0L2.034 11.746c-.299.299-.503.68-.586 1.095l-.42 2.098a1.43 1.43 0 0 0 1.682 1.682l2.098-.42a2.144 2.144 0 0 0 1.096-.586L16.02 5.497a2.144 2.144 0 0 0 0-3.032l-.837-.837Zm-2.021 1.01a.715.715 0 0 1 1.01 0l.838.838c.279.279.279.731 0 1.01l-1.91 1.91-1.847-1.848 1.909-1.91Zm-2.92 2.92-7.198 7.198c-.1.1-.168.227-.195.366l-.42 2.097 2.098-.42a.714.714 0 0 0 .365-.195l7.198-7.198-1.848-1.847Z" fill="#41416e" fill-rule="evenodd" data-name="Path 3147"/></svg>