<svg xmlns="http://www.w3.org/2000/svg" width="24.167" height="19.333" viewBox="2.417 4.833 24.167 19.333"><path d="M20.542 4.833H8.458a6.049 6.049 0 0 0-6.041 6.042v7.25a6.048 6.048 0 0 0 6.041 6.042h12.084a6.048 6.048 0 0 0 6.041-6.042v-7.25a6.049 6.049 0 0 0-6.041-6.042ZM8.458 7.25h12.084c1.423 0 2.645.831 3.238 2.027l-7.27 4.846a3.615 3.615 0 0 1-4.02 0L5.22 9.277A3.618 3.618 0 0 1 8.458 7.25Zm12.084 14.5H8.458a3.63 3.63 0 0 1-3.625-3.625v-6.201l6.315 4.21a6.03 6.03 0 0 0 6.703 0l6.316-4.21v6.201a3.63 3.63 0 0 1-3.625 3.625Z" fill="#41416e" fill-rule="evenodd" data-name="envelope-Bold_1_"/></svg>