<svg xmlns="http://www.w3.org/2000/svg" width="17.505" height="13.999" viewBox="1.748 3.5 17.505 13.999"><path d="M18.763 8.739C17.59 6.782 14.953 3.5 10.5 3.5c-4.453 0-7.088 3.282-8.263 5.239a3.416 3.416 0 0 0 0 3.522c1.175 1.956 3.81 5.238 8.263 5.238 4.454 0 7.09-3.282 8.263-5.238a3.416 3.416 0 0 0 0-3.522Zm-1.5 2.621c-.984 1.64-3.171 4.39-6.763 4.39-3.591 0-5.779-2.751-6.763-4.39a1.67 1.67 0 0 1 0-1.721C4.721 8 6.91 5.249 10.5 5.249c3.592 0 5.779 2.75 6.763 4.39a1.67 1.67 0 0 1 0 1.721ZM10.5 6.563A3.942 3.942 0 0 0 6.562 10.5a3.942 3.942 0 0 0 3.938 3.938 3.942 3.942 0 0 0 3.938-3.938A3.942 3.942 0 0 0 10.5 6.562Zm0 6.125A2.19 2.19 0 0 1 8.312 10.5 2.19 2.19 0 0 1 10.5 8.312a2.19 2.19 0 0 1 2.188 2.188 2.19 2.19 0 0 1-2.188 2.188Z" fill="#41416e" fill-rule="evenodd" data-name="eye-Bold_1_"/></svg>