<svg xmlns="http://www.w3.org/2000/svg" width="20.983" height="21" viewBox="33 95 20.983 21"><path d="M43.5 95C37.703 95 33 99.703 33 105.5S37.703 116 43.5 116s10.483-4.703 10.483-10.5S49.297 95 43.5 95Zm3.416 1.649a9.44 9.44 0 0 1 5.065 4.644c-.85.3-1.545.676-2.188.976-.41.191-.802.509-1.16.858a5.7 5.7 0 0 0-3.467-3.045c.448-1.239 1.102-2.41 1.75-3.433Zm-6.882.017c.51 1.13.948 2.458 1.228 3.634a5.703 5.703 0 0 0-2.844 2.71c-1.03-.977-2.485-1.722-3.45-1.666a9.486 9.486 0 0 1 5.066-4.678Zm3.466 4.173a4.662 4.662 0 0 1 0 9.322 4.662 4.662 0 0 1 0-9.322Zm-5.284 6.68a5.708 5.708 0 0 0 2.625 2.979 10.186 10.186 0 0 0-1.043 3.752 9.495 9.495 0 0 1-5.25-5.587c1.245-.527 2.554-.898 3.668-1.144Zm10.534.101c1.186.388 2.435.977 3.5 1.515a9.452 9.452 0 0 1-4.594 4.896c-.153-.678-.394-1.267-.723-1.716-.373-.508-.713-1.102-1.06-1.683a5.694 5.694 0 0 0 2.877-3.012Z" fill="#8300c4" fill-rule="evenodd" data-name="help"/></svg>