<svg xmlns="http://www.w3.org/2000/svg" width="20.991" height="20.991" viewBox="153.987 689.401 20.991 20.991"><g data-name="icons8_Google_2"><path d="M174.773 697.84h-.844v-.042h-9.446v4.198h5.932a6.298 6.298 0 0 1-5.932 4.198 6.296 6.296 0 0 1-6.298-6.297 6.296 6.296 0 0 1 6.298-6.297c1.605 0 3.066.604 4.177 1.594l2.969-2.968a10.446 10.446 0 0 0-7.146-2.825c-5.798 0-10.496 4.699-10.496 10.496 0 5.797 4.698 10.496 10.496 10.496 5.797 0 10.495-4.699 10.495-10.496 0-.703-.072-1.39-.205-2.056Z" fill="#ffc107" fill-rule="evenodd" data-name="Path 72"/><path d="m155.196 695.012 3.45 2.53a6.293 6.293 0 0 1 5.837-3.942c1.605 0 3.066.604 4.177 1.594l2.969-2.968a10.446 10.446 0 0 0-7.146-2.825c-4.033 0-7.528 2.276-9.287 5.611Z" fill="#ff3d00" fill-rule="evenodd" data-name="Path 73"/><path d="M164.483 710.393c2.71 0 5.174-1.038 7.037-2.725l-3.25-2.749a6.255 6.255 0 0 1-3.787 1.275 6.292 6.292 0 0 1-5.92-4.17l-3.424 2.637c1.736 3.399 5.264 5.732 9.344 5.732Z" fill="#4caf50" fill-rule="evenodd" data-name="Path 74"/><path d="M174.773 697.84h-.844v-.042h-9.446v4.198h5.932a6.326 6.326 0 0 1-2.146 2.923h.002l3.249 2.75c-.23.206 3.458-2.524 3.458-7.772 0-.703-.072-1.39-.205-2.056Z" fill="#1976d2" fill-rule="evenodd" data-name="Path 75"/></g></svg>