<svg xmlns="http://www.w3.org/2000/svg" width="30.016" height="36.173" viewBox="6 1 30.016 36.173"><path d="M6 8.696v25.968c0 1.131.952 2.509 2.124 2.509H33.69c1.169 0 2.326-1.378 2.326-2.51V8.697H6Zm14.977 20.608c-4.51 0-8.166-3.536-8.166-7.899 0-4.363 3.656-7.898 8.166-7.898s8.167 3.535 8.167 7.898c0 4.364-3.657 7.9-8.167 7.9ZM33.69 1H8.124C6.952 1 6 1.795 6 2.928v4.23h30.016v-4.23C36.016 1.795 34.859 1 33.69 1ZM16.005 5.618H7.54V2.539h8.466v3.079Zm14.736-.216c-.962 0-1.738-.753-1.738-1.684 0-.929.776-1.682 1.738-1.682.961 0 1.74.753 1.74 1.682 0 .93-.779 1.684-1.74 1.684Z" fill="#41416e" fill-rule="evenodd" data-name="Path 3145"/></svg>