<svg xmlns="http://www.w3.org/2000/svg" width="19.333" height="24.166" viewBox="4.833 2.417 19.333 24.166"><path d="M20.542 11.387V8.458A6.049 6.049 0 0 0 14.5 2.417a6.048 6.048 0 0 0-6.042 6.041v2.93c-2.13.935-3.625 3.057-3.625 5.529v3.625a6.048 6.048 0 0 0 6.042 6.041h7.25a6.048 6.048 0 0 0 6.042-6.041v-3.625c0-2.472-1.495-4.594-3.625-5.53Zm-9.667-2.929A3.63 3.63 0 0 1 14.5 4.833a3.63 3.63 0 0 1 3.625 3.625v2.417h-7.25V8.458ZM21.75 20.542a3.63 3.63 0 0 1-3.625 3.625h-7.25a3.63 3.63 0 0 1-3.625-3.625v-3.625a3.63 3.63 0 0 1 3.625-3.625h7.25a3.63 3.63 0 0 1 3.625 3.625v3.625Zm-6.042-2.417v1.208a1.208 1.208 0 1 1-2.416 0v-1.208a1.208 1.208 0 1 1 2.416 0Z" fill="#41416e" fill-rule="evenodd" data-name="lock-Bold_1_"/></svg>