<svg xmlns="http://www.w3.org/2000/svg" width="33.901" height="11.304" viewBox="234.214 90.367 33.901 11.304"><g data-name="mada"><path d="M234.214 96.885h14.34v4.777h-14.34v-4.777z" fill="#84b740" fill-rule="evenodd" data-name="Rectangle 46"/><path d="M234.214 90.367h14.34v4.781h-14.34v-4.781z" fill="#259bd6" fill-rule="evenodd" data-name="Rectangle 47"/><path d="m262.895 100.692-.064.013c-.221.042-.302.06-.464.06-.375 0-.818-.192-.818-1.095 0-.464.077-1.082.775-1.082h.005c.119.009.255.022.51.098l.056.017v1.989Zm.115-4.5-.115.02v1.67l-.102-.03-.03-.009a2.35 2.35 0 0 0-.634-.11c-1.397 0-1.69 1.056-1.69 1.941 0 1.214.68 1.912 1.868 1.912.503 0 .873-.051 1.248-.175.345-.11.468-.268.468-.604v-4.79c-.332.06-.677.119-1.013.174" fill="#27292d" fill-rule="evenodd" data-name="Path 209"/><path d="m267.046 100.722-.06.017-.212.055c-.2.051-.379.08-.515.08-.328 0-.524-.161-.524-.438 0-.179.08-.48.617-.48h.694v.766Zm-.49-3.01c-.43 0-.872.076-1.421.246l-.358.107.12.809.348-.115c.367-.12.822-.196 1.163-.196.153 0 .622 0 .622.506v.222h-.652c-1.188 0-1.737.379-1.737 1.192 0 .694.507 1.111 1.358 1.111.264 0 .63-.05.945-.128l.017-.004.017.004.107.018c.332.06.677.119 1.013.183V99.01c0-.86-.52-1.299-1.541-1.299" fill="#27292d" fill-rule="evenodd" data-name="Path 210"/><path d="m258.773 100.722-.06.017-.212.055c-.2.051-.375.08-.515.08-.328 0-.524-.161-.524-.438 0-.179.081-.48.613-.48h.694v.766h.004Zm-.485-3.01c-.434 0-.873.076-1.422.246l-.358.107.12.809.349-.115c.366-.12.821-.196 1.162-.196.153 0 .622 0 .622.506v.222h-.652c-1.188 0-1.741.379-1.741 1.192 0 .694.507 1.111 1.362 1.111.264 0 .63-.05.946-.128l.017-.004.017.004.102.018c.336.06.677.119 1.013.187v-2.657c.004-.868-.515-1.303-1.537-1.303" fill="#27292d" fill-rule="evenodd" data-name="Path 211"/><path d="M254.29 97.72c-.54 0-.988.179-1.154.255l-.042.022-.039-.03c-.23-.166-.566-.252-1.034-.252-.413 0-.8.06-1.222.184-.362.11-.503.285-.503.613v3.036h1.133v-2.806l.055-.017c.23-.077.366-.09.498-.09.328 0 .494.175.494.515v2.402h1.116v-2.448c0-.145-.03-.23-.034-.247l-.039-.073.077-.034c.17-.077.358-.115.554-.115.225 0 .493.09.493.515v2.402h1.112V99.04c0-.89-.477-1.32-1.465-1.32" fill="#27292d" fill-rule="evenodd" data-name="Path 212"/><path d="M266.212 93.483c-.166 0-.443-.017-.66-.06l-.064-.012v-1.64a.8.8 0 0 0-.03-.234l-.034-.068.073-.03c.017-.008.034-.012.055-.02l.013-.01.076-.025c.013-.004.022-.009.03-.009.251-.068.481-.06.584-.068h.004c.694 0 .775.618.775 1.082-.005.903-.452 1.094-.822 1.094m-.004-3.116h-.03c-.652 0-1.32.178-1.559.527-.127.17-.2.384-.204.635v1.69c0 .145-.03.2-.034.213l-.038.073h-2.057v-1.176h-.004c-.026-1.239-.758-1.92-1.818-1.92h-1.034c-.043.302-.077.515-.12.818h1.03c.541 0 .826.46.826 1.166v1.184l-.072-.038a.781.781 0 0 0-.243-.034h-1.78c-.034.225-.076.519-.123.813h5.471c.188-.039.405-.073.592-.102.277.136.792.208 1.145.208 1.188 0 1.96-.796 1.96-2.022-.005-1.214-.75-2.01-1.908-2.035" fill="#27292d" fill-rule="evenodd" data-name="Path 213"/><path d="M256.615 94.816h.05c1.189 0 1.742-.392 1.742-1.358 0-.694-.506-1.248-1.358-1.248h-1.094c-.328 0-.524-.187-.524-.502 0-.213.081-.477.618-.477h2.392c.051-.31.077-.507.124-.818h-2.487c-1.158 0-1.741.486-1.741 1.295 0 .8.507 1.218 1.358 1.218h1.094c.328 0 .524.26.524.532 0 .179-.08.549-.613.549h-.183l-3.504-.008h-.64c-.54 0-.919-.307-.919-1.018v-.49c0-.74.294-1.2.92-1.2h1.039l.119-.814H252.114c-1.06 0-1.792.711-1.818 1.95v.554c.026 1.239.758 1.83 1.818 1.83h1.034l1.9.005h1.567Z" fill="#27292d" fill-rule="evenodd" data-name="Path 214"/></g></svg>