<svg xmlns="http://www.w3.org/2000/svg" width="19.375" height="24.542" viewBox="5.813 3.229 19.375 24.542"><path d="M18.083 12.917A2.59 2.59 0 0 1 15.5 15.5a2.59 2.59 0 0 1-2.583-2.583 2.591 2.591 0 0 1 2.583-2.584 2.591 2.591 0 0 1 2.583 2.584Zm7.105 0c0 7.853-6.033 12.774-8.616 14.518a1.817 1.817 0 0 1-1.072.336c-.375 0-.75-.104-1.085-.336-2.583-1.744-8.602-6.653-8.602-14.518 0-5.528 4.159-9.688 9.687-9.688 5.515 0 9.688 4.16 9.688 9.688Zm-4.521 0A5.166 5.166 0 0 0 15.5 7.75a5.166 5.166 0 0 0-5.167 5.167 5.165 5.165 0 0 0 5.167 5.166 5.165 5.165 0 0 0 5.167-5.166Z" fill="#41416e" fill-rule="evenodd" data-name="map-marker-Filled_1_"/></svg>