<svg xmlns="http://www.w3.org/2000/svg" width="25.469" height="25.469" viewBox="347.387 51.387 25.469 25.469"><g data-name="Path 3140"><path d="M360.204 51.53h.123c1.064 0 1.952 0 2.656.095.744.1 1.416.32 1.955.86.54.54.76 1.21.86 1.955.07.52.088 1.141.093 1.86.768.024 1.453.069 2.061.15 1.39.187 2.513.58 3.4 1.467.886.887 1.28 2.011 1.467 3.4.181 1.35.181 3.074.181 5.25v.134c0 2.178 0 3.902-.181 5.251-.187 1.39-.58 2.513-1.467 3.4-.887.886-2.01 1.28-3.4 1.467-1.35.181-3.073.181-5.25.181h-4.873c-2.177 0-3.901 0-5.25-.181-1.39-.187-2.514-.58-3.4-1.467-.887-.887-1.28-2.01-1.467-3.4-.181-1.35-.181-3.073-.181-5.25v-.134c0-2.177 0-3.902.181-5.251.187-1.389.58-2.513 1.467-3.4.886-.886 2.01-1.28 3.4-1.466a20.677 20.677 0 0 1 2.061-.152c.005-.718.023-1.339.093-1.86.1-.743.32-1.415.86-1.954.54-.54 1.21-.76 1.954-.86.705-.094 1.592-.094 2.657-.094Zm-3.786 4.741c.447-.002.918-.002 1.411-.002h4.872c.494 0 .964 0 1.412.002-.005-.675-.021-1.185-.076-1.595-.074-.546-.201-.78-.355-.935-.155-.154-.389-.281-.935-.354-.572-.077-1.34-.08-2.482-.08-1.142 0-1.909.003-2.48.08-.548.073-.782.2-.936.354-.154.155-.281.389-.355.935-.055.41-.072.92-.076 1.595Zm-3.603 1.94c-1.192.161-1.878.461-2.38.963-.501.501-.802 1.188-.962 2.38-.163 1.217-.165 2.822-.165 5.08 0 2.26.002 3.864.165 5.082.16 1.191.461 1.878.962 2.38.502.5 1.188.801 2.38.961 1.218.164 2.822.166 5.081.166h4.739c2.258 0 3.863-.002 5.08-.166 1.192-.16 1.88-.46 2.38-.962.502-.5.802-1.188.962-2.38.164-1.217.166-2.822.166-5.08 0-2.26-.002-3.864-.166-5.081-.16-1.192-.46-1.879-.962-2.38-.5-.502-1.188-.802-2.38-.962-1.217-.164-2.822-.166-5.08-.166h-4.739c-2.259 0-3.863.002-5.08.166Zm7.45 2.797c.491 0 .889.397.889.888v.012c1.29.325 2.37 1.342 2.37 2.752a.888.888 0 0 1-1.778 0c0-.455-.504-1.086-1.48-1.086-.977 0-1.481.631-1.481 1.086 0 .455.504 1.086 1.48 1.086 1.641 0 3.258 1.137 3.258 2.863 0 1.41-1.08 2.427-2.37 2.752v.012a.888.888 0 0 1-1.776 0v-.012c-1.29-.325-2.37-1.342-2.37-2.752a.888.888 0 0 1 1.778 0c0 .455.504 1.086 1.48 1.086.977 0 1.481-.631 1.481-1.086 0-.455-.504-1.086-1.48-1.086-1.641 0-3.258-1.137-3.258-2.863 0-1.41 1.08-2.427 2.369-2.752v-.012c0-.49.398-.888.888-.888Z" fill="#8300c4" fill-rule="evenodd"/><path d="M360.204 51.53h.123c1.064 0 1.952 0 2.656.095.744.1 1.416.32 1.955.86.54.54.76 1.21.86 1.955.07.52.088 1.141.093 1.86.768.024 1.453.069 2.061.15 1.39.187 2.513.58 3.4 1.467.886.887 1.28 2.011 1.467 3.4.181 1.35.181 3.074.181 5.25v.134c0 2.178 0 3.902-.181 5.251-.187 1.39-.58 2.513-1.467 3.4-.887.886-2.01 1.28-3.4 1.467-1.35.181-3.073.181-5.25.181h-4.873c-2.177 0-3.901 0-5.25-.181-1.39-.187-2.514-.58-3.4-1.467-.887-.887-1.28-2.01-1.467-3.4-.181-1.35-.181-3.073-.181-5.25v-.134c0-2.177 0-3.902.181-5.251.187-1.389.58-2.513 1.467-3.4.886-.886 2.01-1.28 3.4-1.466a20.677 20.677 0 0 1 2.061-.152c.005-.718.023-1.339.093-1.86.1-.743.32-1.415.86-1.954.54-.54 1.21-.76 1.954-.86.705-.094 1.592-.094 2.657-.094Zm-3.786 4.741c.447-.002.918-.002 1.411-.002h4.872c.494 0 .964 0 1.412.002-.005-.675-.021-1.185-.076-1.595-.074-.546-.201-.78-.355-.935-.155-.154-.389-.281-.935-.354-.572-.077-1.34-.08-2.482-.08-1.142 0-1.909.003-2.48.08-.548.073-.782.2-.936.354-.154.155-.281.389-.355.935-.055.41-.072.92-.076 1.595Zm-3.603 1.94c-1.192.161-1.878.461-2.38.963-.501.501-.802 1.188-.962 2.38-.163 1.217-.165 2.822-.165 5.08 0 2.26.002 3.864.165 5.082.16 1.191.461 1.878.962 2.38.502.5 1.188.801 2.38.961 1.218.164 2.822.166 5.081.166h4.739c2.258 0 3.863-.002 5.08-.166 1.192-.16 1.88-.46 2.38-.962.502-.5.802-1.188.962-2.38.164-1.217.166-2.822.166-5.08 0-2.26-.002-3.864-.166-5.081-.16-1.192-.46-1.879-.962-2.38-.5-.502-1.188-.802-2.38-.962-1.217-.164-2.822-.166-5.08-.166h-4.739c-2.259 0-3.863.002-5.08.166Zm7.45 2.797c.491 0 .889.397.889.888v.012c1.29.325 2.37 1.342 2.37 2.752a.888.888 0 0 1-1.778 0c0-.455-.504-1.086-1.48-1.086-.977 0-1.481.631-1.481 1.086 0 .455.504 1.086 1.48 1.086 1.641 0 3.258 1.137 3.258 2.863 0 1.41-1.08 2.427-2.37 2.752v.012a.888.888 0 0 1-1.776 0v-.012c-1.29-.325-2.37-1.342-2.37-2.752a.888.888 0 0 1 1.778 0c0 .455.504 1.086 1.48 1.086.977 0 1.481-.631 1.481-1.086 0-.455-.504-1.086-1.48-1.086-1.641 0-3.258-1.137-3.258-2.863 0-1.41 1.08-2.427 2.369-2.752v-.012c0-.49.398-.888.888-.888Z" stroke-linejoin="round" stroke-linecap="round" stroke-width=".288" stroke="#8300c4" fill="transparent"/></g></svg>