<svg xmlns="http://www.w3.org/2000/svg" width="25" height="25" viewBox="49 247 25 25"><g data-name="phone-Filled"><path d="M49 247h25v25H49v-25z" fill="rgba(255,255,255,0 )" fill-rule="evenodd" data-name="Path"/><path d="M67.74 267.846a4.452 4.452 0 0 1-3.377 1.55l-.122-.001c-8.32-.226-15.015-6.921-15.24-15.24a4.46 4.46 0 0 1 1.56-3.516 4.197 4.197 0 0 1 3.489-.97c.19.035.354.079.493.124.55.183.95.659 1.042 1.24l.698 4.432a1.58 1.58 0 0 1-.564 1.47 3.406 3.406 0 0 1-.273.201c-.241.165-.333.445-.225.694a10.268 10.268 0 0 0 5.34 5.34c.25.11.53.016.699-.23.049-.072.1-.141.152-.208.35-.446.924-.66 1.49-.57l4.513.751c.596.1 1.08.522 1.236 1.076.028.101.055.216.078.346a4.244 4.244 0 0 1-.99 3.51Z" fill="#41416e" fill-rule="evenodd" data-name="phone-Filled_1_"/></g></svg>