<svg id="phone-Filled" xmlns="http://www.w3.org/2000/svg" width="25" height="25" viewBox="0 0 25 25">
  <rect id="Path" width="25" height="25" fill="rgba(255,255,255,0)"/>
  <path id="phone-Filled_1_" d="M752.239,2861.742a4.452,4.452,0,0,1-3.376,1.55h-.122a15.671,15.671,0,0,1-15.24-15.24,4.459,4.459,0,0,1,1.559-3.515,4.2,4.2,0,0,1,3.489-.97,3.694,3.694,0,0,1,.494.124,1.553,1.553,0,0,1,1.042,1.24l.7,4.432a1.58,1.58,0,0,1-.564,1.47c-.087.071-.178.139-.273.2a.561.561,0,0,0-.225.694,10.268,10.268,0,0,0,5.34,5.341.565.565,0,0,0,.7-.231c.049-.071.1-.141.152-.207a1.577,1.577,0,0,1,1.491-.57l4.512.751a1.534,1.534,0,0,1,1.235,1.076c.028.1.055.216.078.346A4.244,4.244,0,0,1,752.239,2861.742Z" transform="translate(-733.499 -2840.896)" fill="#41416e"/>
</svg>
