<svg xmlns="http://www.w3.org/2000/svg" width="23.332" height="23.332" viewBox="2.335 2.333 23.332 23.332"><path d="M25.589 19.318a4.46 4.46 0 0 0-.1-.445c-.235-.837-.961-1.474-1.85-1.624l-5.053-.84a2.35 2.35 0 0 0-2.222.85c-.068.085-.133.173-.264.318-2.553-1.11-4.57-3.128-5.636-5.74.12-.08.236-.167.345-.257.65-.523.972-1.363.841-2.19l-.783-4.963A2.316 2.316 0 0 0 9.31 2.574a4.474 4.474 0 0 0-.632-.16 5.295 5.295 0 0 0-4.392 1.217 5.573 5.573 0 0 0-1.948 4.396c.259 9.629 8.006 17.377 17.635 17.637h.152c1.62 0 3.152-.7 4.22-1.937a5.33 5.33 0 0 0 1.245-4.41Zm-3.01 2.884a3.233 3.233 0 0 1-2.545 1.13c-8.39-.226-15.14-6.977-15.366-15.367a3.254 3.254 0 0 1 1.137-2.562 2.948 2.948 0 0 1 1.933-.737c.173 0 .347.015.522.046.12.023.224.05.302.078l.777 4.98c-.058.047-.119.092-.184.136-.974.663-1.335 1.864-.875 2.922a13.244 13.244 0 0 0 6.887 6.89c1.057.46 2.26.1 2.924-.874l.109-.135 5.04.795c.018.063.034.133.048.215a3 3 0 0 1-.708 2.483Z" fill="#41416e" fill-rule="evenodd" data-name="phone-Bold_1_"/></svg>