<svg xmlns="http://www.w3.org/2000/svg" width="19.833" height="17" viewBox="33 219 19.833 17"><path d="M37.25 227.5a4.251 4.251 0 0 1 3.913 2.59l.095.243h10.159a1.417 1.417 0 0 1 .165 2.824l-.165.01H41.258A4.252 4.252 0 0 1 33 231.75a4.25 4.25 0 0 1 4.25-4.25Zm0 2.833a1.417 1.417 0 1 0 0 2.834 1.417 1.417 0 0 0 0-2.834ZM48.583 219a4.25 4.25 0 1 1-3.913 5.91l-.095-.243H34.417a1.417 1.417 0 0 1-.166-2.824l.166-.01h10.158A4.252 4.252 0 0 1 48.583 219Zm0 2.833a1.417 1.417 0 1 0 0 2.834 1.417 1.417 0 0 0 0-2.834Z" fill="#8300c4" fill-rule="evenodd" data-name="preferences"/></svg>