<svg xmlns="http://www.w3.org/2000/svg" width="19.563" height="19.563" viewBox="32.657 94.719 19.563 19.563"><g data-name="settings-account"><path d="M40.557 95.856a1.251 1.251 0 0 1 1.246-1.137h1.272c.647 0 1.187.493 1.246 1.137.048.53.429.961.926 1.148.128.047.254.099.379.153.492.214 1.07.173 1.483-.17a1.282 1.282 0 0 1 1.727.077l.898.898c.447.447.48 1.162.075 1.647-.337.405-.368.976-.142 1.451.098.206.188.417.268.632.187.497.619.878 1.148.926a1.251 1.251 0 0 1 1.137 1.246v1.272c0 .647-.493 1.187-1.137 1.246-.53.048-.961.429-1.148.926a7.984 7.984 0 0 1-.238.569c-.21.45-.176.99.142 1.372a1.17 1.17 0 0 1-.071 1.577l-1.004 1.003a1.17 1.17 0 0 1-1.577.072c-.382-.319-.92-.353-1.372-.143a7.984 7.984 0 0 1-.568.239c-.497.186-.878.618-.926 1.147a1.251 1.251 0 0 1-1.246 1.138h-1.272a1.251 1.251 0 0 1-1.246-1.138c-.048-.529-.429-.96-.926-1.147a7.959 7.959 0 0 1-.632-.269c-.475-.226-1.047-.195-1.451.142-.486.405-1.2.373-1.647-.074l-.898-.898a1.282 1.282 0 0 1-.078-1.728c.343-.412.384-.99.17-1.483a7.951 7.951 0 0 1-.153-.379c-.186-.497-.618-.878-1.147-.926a1.251 1.251 0 0 1-1.138-1.246v-1.272c0-.647.494-1.187 1.138-1.246.529-.048.96-.429 1.147-.926.057-.15.117-.298.182-.444.23-.517.192-1.128-.17-1.562a1.332 1.332 0 0 1 .082-1.795l.794-.794a1.332 1.332 0 0 1 1.795-.082c.434.362 1.045.4 1.561.17.146-.064.294-.125.445-.181.497-.187.878-.619.926-1.148Z" stroke-linejoin="round" stroke-linecap="round" stroke-width="2" stroke="#8300c4" fill="transparent" data-name="Path 131"/><path d="M45.373 104.5a2.934 2.934 0 1 1-5.869 0 2.934 2.934 0 0 1 5.87 0Z" stroke-linejoin="round" stroke-linecap="round" stroke-width="2" stroke="#8300c4" fill="transparent" data-name="Path 132"/></g></svg>