<svg xmlns="http://www.w3.org/2000/svg" width="34.167" height="34.167"><path d="M17.083 23.917a6.84 6.84 0 0 1-6.833-6.834 6.84 6.84 0 0 1 6.833-6.833 6.84 6.84 0 0 1 6.834 6.833 6.84 6.84 0 0 1-6.834 6.834Zm0-10.25a3.42 3.42 0 0 0-3.416 3.416 3.42 3.42 0 0 0 3.416 3.417 3.42 3.42 0 0 0 3.417-3.417 3.42 3.42 0 0 0-3.417-3.416Zm.855 20.5h-1.709a4.276 4.276 0 0 1-4.27-4.271c0-.092-.033-.145-.117-.186-.084-.041-.18.047-.18.047-1.68 1.675-4.39 1.676-6.054.016l-1.206-1.208a4.242 4.242 0 0 1-1.25-3.027 4.226 4.226 0 0 1 1.26-3.02c.043-.047.08-.12.035-.21-.045-.093-.176-.1-.176-.1A4.276 4.276 0 0 1 0 17.938v-1.709a4.276 4.276 0 0 1 4.27-4.27c.09 0 .156-.045.185-.11.002-.003.052-.106-.037-.18-1.686-1.687-1.686-4.397-.02-6.062l1.209-1.211a4.283 4.283 0 0 1 6.039-.002c.066.066.12.097.215.055.096-.041.097-.178.097-.178A4.276 4.276 0 0 1 16.23 0h1.709a4.276 4.276 0 0 1 4.27 4.27s-.008.17.086.206c.094.036.18-.024.201-.043a4.248 4.248 0 0 1 3.043-1.281h.007c1.14 0 2.214.442 3.02 1.25l1.204 1.205a4.274 4.274 0 0 1 0 6.039c-.023.036-.123.109-.083.212.037.1.112.1.162.1 2.402 0 4.319 1.915 4.319 4.271v1.709a4.276 4.276 0 0 1-4.271 4.27c-.103.004-.195.007-.227.084-.033.08-.016.137.068.207a4.263 4.263 0 0 1 1.28 3.039 4.247 4.247 0 0 1-1.253 3.027l-1.204 1.206a4.283 4.283 0 0 1-6.039.002c-.003 0-.096-.116-.191-.082-.094.036-.122.113-.122.157 0 2.404-1.916 4.319-4.27 4.319Zm-4.833-7.633.075.03c1.296.53 2.195 1.858 2.195 3.284 0 .518.383.902.854.902h1.709a.856.856 0 0 0 .854-.854c0-1.474.898-2.802 2.238-3.35a3.56 3.56 0 0 1 3.869.77c.369.371.91.373 1.245.038l1.205-1.205a.853.853 0 0 0-.002-1.209 3.63 3.63 0 0 1-.811-3.87c.01-.027.018-.052.03-.08l.01-.024a3.543 3.543 0 0 1 3.275-2.174c.516 0 .899-.385.899-.854v-1.709a.856.856 0 0 0-.854-.854c-1.493 0-2.781-.866-3.335-2.205l-.032-.079c-.532-1.286-.227-2.807.79-3.825.368-.369.368-.909.035-1.244l-1.205-1.204a.851.851 0 0 0-.604-.25h-.002a.852.852 0 0 0-.605.252 3.635 3.635 0 0 1-3.922.792l-.002-.001a3.545 3.545 0 0 1-2.222-3.296c0-.514-.383-.898-.854-.898h-1.709a.856.856 0 0 0-.854.854c0 1.496-.87 2.79-2.216 3.34a3.573 3.573 0 0 1-3.891-.76c-.37-.373-.913-.373-1.246-.038l-1.21 1.21a.855.855 0 0 0 0 1.207c1.053 1.054 1.357 2.573.807 3.909a1.72 1.72 0 0 1-.174.323c-.675 1.206-1.86 1.913-3.126 1.913-.52 0-.902.384-.902.854v1.709c0 .47.382.854.854.854 1.481 0 2.76.852 3.32 2.174l.01.024c.015.036.028.07.04.108.513 1.262.202 2.824-.8 3.82a.873.873 0 0 0-.272.625.844.844 0 0 0 .249.606l1.206 1.207a.855.855 0 0 0 1.208-.002c1.045-1.042 2.55-1.35 3.873-.82ZM29.728 11.89l.004.01-.004-.01Z" fill="#41416e" fill-rule="evenodd" data-name="settings-Bold"/></svg>