<svg xmlns="http://www.w3.org/2000/svg" width="16.279" height="21" viewBox="35.92 95 16.279 21"><g data-name="terms"><path d="M38.378 99.715h6.76v1.229h-6.76v-1.23z" fill="#8300c4" fill-rule="evenodd" data-name="Rectangle 33"/><path d="m47.694 99.963-.605-.643-.821.773 1.478 1.571 2.105-2.534-.867-.72-1.29 1.553Z" fill="#8300c4" fill-rule="evenodd" data-name="Path 121"/><path d="M38.378 103.095h6.76v1.229h-6.76v-1.23z" fill="#8300c4" fill-rule="evenodd" data-name="Rectangle 34"/><path d="m47.694 103.486-.605-.642-.821.772 1.478 1.572 2.105-2.535-.867-.72-1.29 1.553Z" fill="#8300c4" fill-rule="evenodd" data-name="Path 122"/><path d="M38.378 106.782h6.76v1.229h-6.76v-1.23z" fill="#8300c4" fill-rule="evenodd" data-name="Rectangle 35"/><path d="m47.694 107.01-.605-.643-.821.773 1.478 1.571 2.105-2.534-.867-.72-1.29 1.553Z" fill="#8300c4" fill-rule="evenodd" data-name="Path 123"/><path d="M38.378 110.162h6.76v1.229h-6.76v-1.23z" fill="#8300c4" fill-rule="evenodd" data-name="Rectangle 36"/><path d="m47.694 110.533-.605-.642-.821.772 1.478 1.572 2.105-2.534-.867-.72-1.29 1.552Z" fill="#8300c4" fill-rule="evenodd" data-name="Path 124"/><path d="M52.199 96.62A1.62 1.62 0 0 0 50.578 95H37.541a1.62 1.62 0 0 0-1.621 1.62v17.76c0 .894.726 1.62 1.62 1.62h13.038a1.62 1.62 0 0 0 1.62-1.62V96.62Zm-1.128 17.76c0 .272-.22.492-.493.492H37.541a.493.493 0 0 1-.494-.493V96.62c0-.272.221-.493.494-.493h13.037c.272 0 .493.22.493.493v17.76Z" fill="#8300c4" fill-rule="evenodd" data-name="Path 125"/></g></svg>