<svg xmlns="http://www.w3.org/2000/svg" width="16" height="20" viewBox="4 2 16 20"><path d="M12 13c3.033 0 5.5-2.468 5.5-5.5S15.033 2 12 2a5.506 5.506 0 0 0-5.5 5.5c0 3.032 2.467 5.5 5.5 5.5Zm0-9c1.93 0 3.5 1.57 3.5 3.5S13.93 11 12 11 8.5 9.43 8.5 7.5 10.07 4 12 4Zm8 13.967v1.011c0 .996-.364 1.951-1.025 2.689a.998.998 0 0 1-1.413.078 1 1 0 0 1-.078-1.412 2.03 2.03 0 0 0 .515-1.355v-1.011c0-1.399-.927-2.609-2.253-2.942a.765.765 0 0 0-.56.07 6.564 6.564 0 0 1-6.362.006.769.769 0 0 0-.569-.076C6.926 15.358 6 16.568 6 17.967v1.01c0 .504.183.985.515 1.356a1 1 0 0 1-1.49 1.334A4.023 4.023 0 0 1 4 18.977v-1.01c0-2.317 1.55-4.325 3.767-4.882a2.771 2.771 0 0 1 2.04.273 4.558 4.558 0 0 0 4.397-.006 2.762 2.762 0 0 1 2.031-.268c2.216.558 3.765 2.565 3.765 4.883Z" fill="#41416e" fill-rule="evenodd" data-name="user-Bold_1_"/></svg>