<svg xmlns="http://www.w3.org/2000/svg" width="42.339" height="34.01" viewBox="269.334 79.014 42.339 34.01"><g data-name="Visa" transform="translate(-1531.822 592.57)" clip-path="url(&quot;#a&quot;)"><path d="m0-168.002 34.492-12.703 7.847 21.308-34.492 12.702" fill-rule="evenodd" fill="url(&quot;#b&quot;)" transform="translate(1801.156 -332.85)" data-name="Path 222"/></g><defs><linearGradient x1="0" y1=".373" x2=".008" y2=".373" id="b"><stop stop-color="#222357" offset="0"/><stop stop-color="#254aa5" offset="1"/></linearGradient><clipPath id="a"><path d="M1822.927-498.589c-.02 1.575 1.403 2.454 2.475 2.976 1.102.536 1.472.88 1.468 1.36-.008.733-.879 1.057-1.693 1.07-1.422.022-2.248-.384-2.905-.691l-.512 2.396c.66.304 1.88.568 3.145.58 2.971 0 4.915-1.466 4.925-3.74.012-2.886-3.991-3.046-3.964-4.335.01-.391.383-.809 1.2-.915.405-.054 1.523-.095 2.79.489l.497-2.318a7.582 7.582 0 0 0-2.647-.486c-2.796 0-4.763 1.487-4.779 3.614m12.203-3.414c-.542 0-1 .316-1.203.802l-4.244 10.133h2.969l.59-1.633h3.628l.343 1.633h2.616l-2.283-10.935h-2.416m.416 2.954.856 4.106h-2.346l1.49-4.106m-16.218-2.954-2.34 10.935h2.828l2.34-10.935h-2.828m-4.185 0-2.945 7.443-1.19-6.329c-.14-.706-.692-1.114-1.305-1.114h-4.814l-.067.318c.988.214 2.11.56 2.791.93.416.226.535.423.672.96l2.256 8.727h2.99l4.583-10.935h-2.971" data-name="Path 223"/></clipPath></defs></svg>